<svg id="Capa_1" enable-background="new 0 0 512 512" height="512" viewBox="0 0 512 512" width="512" xmlns="http://www.w3.org/2000/svg">
    <g>
        <path d="m451 121h-5.142c-13.623-38.525-51.973-65.156-95.098-59.312-17.05-36.796-53.627-61.688-94.76-61.688s-77.71 24.892-94.761 61.688c-43.125-5.698-82.474 20.801-96.097 59.312h-5.142c-33.091 0-60 26.909-60 60s26.909 60 60 60h196 195c33.091 0 61-26.909 61-60s-27.909-60-61-60z" fill="#f2edf1"/>
        <path d="m512 181c0-33.091-27.909-60-61-60h-5.142c-13.623-38.525-51.973-65.156-95.098-59.312-17.05-36.796-53.627-61.688-94.76-61.688v241h195c33.091 0 61-26.909 61-60z" fill="#dedcef"/>
        <path d="m271 181h-15-120v331h120 120v-226z" fill="#643b7C"/>
        <path d="m376 286-105-105h-15v331h120z" fill="#482c54"/>
        <path d="m271 181v105h105c0-57.891-47.109-105-105-105z" fill="#3a2145"/>
        <path d="m256 309.789-55.605 55.606 21.21 21.21 19.395-19.394v53.789h15 15v-53.789l19.395 19.394 21.21-21.21z" fill="#f9f6f7"/>
        <path d="m271 367.211 19.395 19.394 21.21-21.21-55.605-55.606v111.211h15z" fill="#f2edf1"/>
        
    </g>
</svg>